{"title":"Kiyoshi Kurosawa - Seance.2001.DVDRip.x264-HANDJOB","uid":11014853,"size":2061309645,"categoryP":"video","categoryS":"movies","magnet":"?xt=urn:btih:0b2ebad94d3b3811d62cdf4e0a3a8beb2aca3468&amp;dn=Kiyoshi+Kurosawa+-+Seance.2001.DVDRip.x264-HANDJOB&amp;tr=udp%3A%2F%2Ftracker.openbittorrent.com%3A80&amp;tr=udp%3A%2F%2Fopen.demonii.com%3A1337&amp;tr=udp%3A%2F%2Ftracker.coppersurfer.tk%3A6969&amp;tr=udp%3A%2F%2Fexodus.desync.com%3A6969","seeders":2,"leechers":1,"uploader":"rpessoa","files":1,"time":1410452998,"description":"A psychic housewife and her husband become burdened with a kidnapped girl who escaped her assailant. Junko will not let her husband call the hospital or the police for purely selfish reasons. The girl dies while still in their house and her ghost begins to haunt not only Junko but also her husband, Sato (Koji Yakusho). Written by\n &lt;a href=&quot;\nhttp://www.imdb.com/title/tt0259388/&quot; rel=&quot;nofollow&quot; target=&quot;_NEW&quot;&gt;\nhttp://www.imdb.com/title/tt0259388/&lt;/a&gt;\n\nGeneral\nUnique ID                                : 223639483164680249383750504784933017310 (0xA83F65D21E82BA9625C6DC722465D6DE)\nComplete name                            : Seance.2001.DVDRip.x264-HANDJOB.mkv\nFormat                                   : Matroska\nFormat version                           : Version 2\nFile size                                : 1.92 GiB\nDuration                                 : 1h 37mn\nOverall bit rate                         : 2 827 Kbps\nWriting application                      : HandBrake 4249svn\nWriting library                          : libmkv 0.6.4.2\n\nVideo\nID                                       : 1\nFormat                                   : AVC\nFormat/Info                              : Advanced Video Codec\nFormat profile                           : &lt;a class=&quot;__cf_email__&quot; href=&quot;/cdn-cgi/l/email-protection&quot; data-cfemail=&quot;f3bb9a949bb3bfc0ddc3&quot;&gt;[email&amp;#160;protected]&lt;/a&gt;&lt;script cf-hash='f9e31' type=&quot;text/javascript&quot;&gt;\n/* &lt;![CDATA[ */!function(){try{var t=&quot;currentScript&quot;in document?document.currentScript:function(){for(var t=document.getElementsByTagName(&quot;script&quot;),e=t.length;e--;)if(t[e].getAttribute(&quot;cf-hash&quot;))return t[e]}();if(t&amp;&amp;t.previousSibling){var e,r,n,i,c=t.previousSibling,a=c.getAttribute(&quot;data-cfemail&quot;);if(a){for(e=&quot;&quot;,r=parseInt(a.substr(0,2),16),n=2;a.length-n;n+=2)i=parseInt(a.substr(n,2),16)^r,e+=String.fromCharCode(i);e=document.createTextNode(e),c.parentNode.replaceChild(e,c)}}}catch(u){}}();/* ]]&gt; */&lt;/script&gt;\nFormat settings, CABAC                   : Yes\nFormat settings, ReFrames                : 6 frames\nCodec ID                                 : V_MPEG4/ISO/AVC\nDuration                                 : 1h 37mn\nBit rate                                 : 2 579 Kbps\nWidth                                    : 702 pixels\nHeight                                   : 480 pixels\nDisplay aspect ratio                     : 1.300\nFrame rate mode                          : Variable / Variable\nFrame rate                               : 23.976 fps\nColor space                              : YUV\nChroma subsampling                       : 4:2:0\nBit depth                                : 8 bits\nScan type                                : Progressive\nBits/(Pixel*Frame)                       : 0.319\nStream size                              : 1.75 GiB (91%)\nWriting library                          : x264 core 116\nEncoding settings                        : cabac=1 / ref=6 / deblock=1:-2:-2 / analyse=0x3:0x133 / me=umh / subme=9 / psy=1 / psy_rd=1.00:0.00 / mixed_ref=1 / me_range=24 / chroma_me=1 / trellis=2 / 8x8dct=1 / cqm=0 / deadzone=21,11 / fast_pskip=0 / chroma_qp_offset=-2 / threads=6 / sliced_threads=0 / nr=0 / decimate=1 / interlaced=0 / bluray_compat=0 / constrained_intra=0 / bframes=6 / b_pyramid=2 / b_adapt=2 / b_bias=0 / direct=3 / weightb=1 / open_gop=0 / weightp=2 / keyint=240 / keyint_min=24 / scenecut=40 / intra_refresh=0 / rc_lookahead=50 / rc=crf / mbtree=1 / crf=18.3 / qcomp=0.60 / qpmin=3 / qpmax=69 / qpstep=4 / ip_ratio=1.40 / aq=1:1.20\nLanguage                                 : English\nDefault                                  : Yes\nForced                                   : No\nColor primaries                          : BT.601-6 525, BT.1358 525, BT.1700 NTSC, SMPTE 170M\nTransfer characteristics                 : BT.709-5, BT.1361\nMatrix coefficients                      : BT.601-6 525, BT.1358 525, BT.1700 NTSC, SMPTE 170M\n\nAudio\nID                                       : 2\nFormat                                   : AC-3\nFormat/Info                              : Audio Coding 3\nMode extension                           : CM (complete main)\nCodec ID                                 : A_AC3\nDuration                                 : 1h 37mn\nBit rate mode                            : Constant\nBit rate                                 : 192 Kbps\nChannel(s)                               : 2 channels\nChannel positions                        : Front: L R\nSampling rate                            : 48.0 KHz\nBit depth                                : 16 bits\nCompression mode                         : Lossy\nStream size                              : 134 MiB (7%)\nLanguage                                 : Japanese\nDefault                                  : Yes\nForced                                   : No\n\nText\nID                                       : 3\nFormat                                   : VobSub\nCodec ID                                 : S_VOBSUB\nCodec ID/Info                            : The same subtitle format used on DVDs\nLanguage                                 : English\nDefault                                  : Yes\nForced                                   : No\n\nMenu\n00:00:00.000                             : Chapter 1\n00:07:04.290                             : Chapter 2\n00:15:55.309                             : Chapter 3\n00:18:36.136                             : Chapter 4\n00:19:56.436                             : Chapter 5\n00:23:54.140                             : Chapter 6\n00:26:16.970                             : Chapter 7\n00:32:37.049                             : Chapter 8\n00:39:39.323                             : Chapter 9\n00:44:21.972                             : Chapter 10\n00:49:28.946                             : Chapter 11\n00:54:30.933                             : Chapter 12\n00:58:32.825                             : Chapter 13\n01:02:12.882                             : Chapter 14\n01:07:50.053                             : Chapter 15\n01:10:43.778                             : Chapter 16\n01:16:45.058                             : Chapter 17\n01:20:56.609                             : Chapter 18\n01:23:32.148                             : Chapter 19\n01:28:42.627                             : Chapter 20\n01:35:20.741                             : Chapter 21","torrent":{"xt":"urn:btih:0b2ebad94d3b3811d62cdf4e0a3a8beb2aca3468","amp;dn":"Kiyoshi+Kurosawa+-+Seance.2001.DVDRip.x264-HANDJOB","amp;tr":["udp%3A%2F%2Ftracker.openbittorrent.com%3A80","udp%3A%2F%2Fopen.demonii.com%3A1337","udp%3A%2F%2Ftracker.coppersurfer.tk%3A6969","udp%3A%2F%2Fexodus.desync.com%3A6969"],"infoHash":"0b2ebad94d3b3811d62cdf4e0a3a8beb2aca3468","infoHashBuffer":{"type":"Buffer","data":[11,46,186,217,77,59,56,17,214,44,223,78,10,58,139,235,42,202,52,104]},"announce":[],"urlList":[]}}